<?xml version="1.0" standalone="no"?><!DOCTYPE svg PUBLIC "-//W3C//DTD SVG 1.1//EN" "http://www.w3.org/Graphics/SVG/1.1/DTD/svg11.dtd"><svg t="1690887736275" class="icon" viewBox="0 0 1365 1024" version="1.1" xmlns="http://www.w3.org/2000/svg" p-id="2449" xmlns:xlink="http://www.w3.org/1999/xlink" width="266.6015625" height="200"><path d="M1240.418462 11.447795H117.142974C52.552205 11.447795 0 64.039385 0 128.722051V455.942564c0 64.65641 52.552205 117.248 117.142974 117.248h491.428103v327.693128h46.815179v-327.68h46.81518v327.68h46.815179v-327.68h491.414975c64.603897 0 117.142974-52.604718 117.142974-117.261128V128.722051c0-64.682667-52.565333-117.274256-117.156102-117.274256z m70.327794 444.494769c0 38.833231-31.547077 70.445949-70.327794 70.445949H117.142974c-38.780718 0-70.327795-31.612718-70.327795-70.445949V128.722051c0-38.833231 31.547077-70.445949 70.327795-70.445948h1123.275488c38.780718 0 70.327795 31.612718 70.327794 70.445948V455.942564zM234.075897 409.363692h866.369641v46.802052H234.062769v-46.802052z m-93.630359-70.222769h1076.696616v46.81518H140.43241v-46.81518zM1006.473846 877.489231c-12.931282 0-23.40759 10.463179-23.40759 23.394461 0 38.728205-31.507692 70.222769-70.222769 70.22277-38.715077 0-70.209641-31.507692-70.209641-70.22277V643.413333h-46.815179v257.470359c0 64.525128 52.512821 117.037949 117.037948 117.037949 64.525128 0 117.024821-52.512821 117.024821-117.037949 0-12.931282-10.489436-23.394462-23.40759-23.394461z m-491.533128 23.394461c0 38.728205-31.507692 70.222769-70.222769 70.22277a70.301538 70.301538 0 0 1-70.209641-70.22277 23.40759 23.40759 0 1 0-46.81518 0c0 64.525128 52.512821 117.037949 117.024821 117.037949 64.538256 0 117.037949-52.512821 117.037948-117.037949V643.413333h-46.815179v257.470359z" fill="#2c2c2c" p-id="2450"></path></svg>