<?xml version="1.0" standalone="no"?><!DOCTYPE svg PUBLIC "-//W3C//DTD SVG 1.1//EN" "http://www.w3.org/Graphics/SVG/1.1/DTD/svg11.dtd"><svg t="1690887957516" class="icon" viewBox="0 0 1024 1024" version="1.1" xmlns="http://www.w3.org/2000/svg" p-id="5291" data-spm-anchor-id="a313x.7781069.0.i12.11e23a81tyn2uX" xmlns:xlink="http://www.w3.org/1999/xlink" width="200" height="200"><path d="M293.612329 280.116994c-6.824615 10.236922-3.412307 20.473844 3.412307 23.886152 3.412307 3.412307 6.824615 3.412307 10.236922 3.412307 6.824615 0 10.236922-3.412307 13.649229-6.824615 40.947688-61.421533 20.473844-109.193836 0-150.141524-17.061537-40.947688-34.123074-75.070762 0-122.843065 6.824615-6.824615 3.412307-17.061537-3.412307-23.886152-10.236922-6.824615-20.473844-3.412307-23.886151 3.412308-44.359996 64.83384-20.473844 112.606143-3.412308 156.966139 20.473844 40.947688 34.123074 71.658455 3.412308 116.01845zM464.227697 280.116994c-6.824615 6.824615-3.412307 17.061537 3.412307 23.886152 3.412307 3.412307 6.824615 3.412307 10.236922 3.412307 6.824615 0 10.236922-3.412307 13.64923-6.824615 40.947688-61.421533 20.473844-109.193836 0-150.141524-17.061537-40.947688-34.123074-75.070762 0-122.843065 6.824615-6.824615 3.412307-17.061537-3.412308-23.886152-10.236922-6.824615-20.473844-3.412307-23.886151 3.412308-40.947688 64.83384-20.473844 112.606143-3.412307 156.966139 20.473844 40.947688 34.123074 71.658455 3.412307 116.01845zM634.843065 280.116994c-6.824615 6.824615-3.412307 17.061537 3.412308 23.886152 3.412307 3.412307 6.824615 3.412307 10.236922 3.412307 6.824615 0 10.236922-3.412307 13.649229-6.824615 40.947688-61.421533 20.473844-109.193836 0-150.141524-17.061537-40.947688-34.123074-75.070762 0-122.843065 6.824615-6.824615 3.412307-17.061537-3.412307-23.886152-10.236922-6.824615-20.473844-3.412307-23.886152 3.412308-40.947688 64.83384-20.473844 112.606143-3.412307 156.966139 20.473844 40.947688 34.123074 71.658455 3.412307 116.01845zM904.415347 341.538527h-784.830694c-58.009225 0-102.369221 44.359996-102.369221 102.369221v375.35381c0 58.009225 44.359996 102.369221 102.369221 102.369221h68.246147v85.307684c0 10.236922 6.824615 17.061537 17.061537 17.061537s17.061537-6.824615 17.061537-17.061537V921.630779h545.969178v85.307684c0 10.236922 6.824615 17.061537 17.061537 17.061537s17.061537-6.824615 17.061537-17.061537V921.630779h102.369221c58.009225 0 102.369221-44.359996 102.369221-102.369221V443.907748c0-58.009225-44.359996-102.369221-102.369221-102.369221zM170.769263 853.384632c-10.236922 0-17.061537-6.824615-17.061536-17.061537v-409.476884c0-10.236922 6.824615-17.061537 17.061536-17.061537s17.061537 6.824615 17.061537 17.061537v409.476884c0 10.236922-6.824615 17.061537-17.061537 17.061537z m153.553832-17.061537c0 10.236922-6.824615 17.061537-17.061537 17.061537s-17.061537-6.824615-17.061537-17.061537v-409.476884c0-10.236922 6.824615-17.061537 17.061537-17.061537s17.061537 6.824615 17.061537 17.061537v409.476884z m136.492295 0c0 10.236922-6.824615 17.061537-17.061537 17.061537s-17.061537-6.824615-17.061537-17.061537v-409.476884c0-10.236922 6.824615-17.061537 17.061537-17.061537s17.061537 6.824615 17.061537 17.061537v409.476884z m136.492294 0c0 10.236922-6.824615 17.061537-17.061537 17.061537s-17.061537-6.824615-17.061537-17.061537v-409.476884c0-10.236922 6.824615-17.061537 17.061537-17.061537s17.061537 6.824615 17.061537 17.061537v409.476884z m136.492295 0c0 10.236922-6.824615 17.061537-17.061537 17.061537s-17.061537-6.824615-17.061537-17.061537v-409.476884c0-10.236922 6.824615-17.061537 17.061537-17.061537s17.061537 6.824615 17.061537 17.061537v409.476884z m136.492294 0c0 10.236922-6.824615 17.061537-17.061536 17.061537s-17.061537-6.824615-17.061537-17.061537v-409.476884c0-10.236922 6.824615-17.061537 17.061537-17.061537s17.061537 6.824615 17.061536 17.061537v409.476884z" fill="#707070" p-id="5292" data-spm-anchor-id="a313x.7781069.0.i10.11e23a81tyn2uX" class=""></path></svg>