<?xml version="1.0" standalone="no"?><!DOCTYPE svg PUBLIC "-//W3C//DTD SVG 1.1//EN" "http://www.w3.org/Graphics/SVG/1.1/DTD/svg11.dtd"><svg t="1690888150111" class="icon" viewBox="0 0 1024 1024" version="1.1" xmlns="http://www.w3.org/2000/svg" p-id="9110" xmlns:xlink="http://www.w3.org/1999/xlink" width="200" height="200"><path d="M320 128c25.466 0 49.524 10.034 67.745 28.255C405.966 174.475 416 198.534 416 224v310.89l23.967 19.215C485.745 590.806 512 645.441 512 704c0 51.285-19.972 99.501-56.236 135.764C419.501 876.028 371.285 896 320 896s-99.501-19.972-135.764-56.236C147.972 803.501 128 755.285 128 704c0-58.559 26.255-113.194 72.033-149.896L224 534.889V224c0-25.466 10.034-49.524 28.255-67.745C270.475 138.034 294.534 128 320 128m0-64c-88 0-160 72-160 160v280.171C101.481 551.087 64 623.161 64 704c0 141.385 114.615 256 256 256s256-114.615 256-256c0-80.839-37.481-152.913-96-199.829V224c0-88-72-160-160-160z" p-id="9111" fill="#515151"></path><path d="M352 580.033V320c0-17.6-14.4-32-32-32s-32 14.4-32 32v260.033c-55.207 14.209-96 64.324-96 123.967 0 70.692 57.308 128 128 128s128-57.308 128-128c0-59.643-40.793-109.758-96-123.967zM768 64S576 277.961 576 384s85.961 192 192 192 192-85.961 192-192S768 64 768 64z m61.434 394.626c-27.201 22.571-58.401 29.843-69.686 16.243-11.286-13.601 1.617-42.924 28.818-65.495 27.201-22.571 58.401-29.843 69.686-16.243s-1.617 42.924-28.818 65.495z" p-id="9112" fill="#515151"></path></svg>