<?xml version="1.0" standalone="no"?><!DOCTYPE svg PUBLIC "-//W3C//DTD SVG 1.1//EN" "http://www.w3.org/Graphics/SVG/1.1/DTD/svg11.dtd"><svg t="1690887911008" class="icon" viewBox="0 0 1024 1024" version="1.1" xmlns="http://www.w3.org/2000/svg" p-id="4249" xmlns:xlink="http://www.w3.org/1999/xlink" width="200" height="200"><path d="M688.699535 1021.666233h-333.395349c-52.533581 0-95.255814-42.76986-95.255814-95.35107V116.545488a95.398698 95.398698 0 0 1 95.255814-95.327255h333.395349c52.533581 0 95.255814 42.76986 95.255814 95.327255v809.769675a95.398698 95.398698 0 0 1-95.255814 95.35107" fill="#E6E6E6" p-id="4250"></path><path d="M664.885581 545.434791h-95.255814a23.813953 23.813953 0 1 1 0-47.651721h95.255814a23.813953 23.813953 0 1 1 0 47.651721M664.885581 783.288558h-95.255814a23.813953 23.813953 0 1 1 0-47.675535h95.255814a23.813953 23.813953 0 1 1 0 47.675535" fill="#48A0DC" p-id="4251"></path><path d="M260.048372 616.662326h523.906977v47.627907h-523.906977v-47.627907z" fill="#C7C7C7" p-id="4252"></path></svg>